<!-- google_icon.svg -->
<svg width="24" height="24" viewBox="0 0 24 24" fill="none">
  <g>
    <circle cx="12" cy="12" r="12" fill="white"/>
    <path d="M21.805 12.227c0-.638-.057-1.252-.163-1.84H12v3.481h5.502a4.71 4.71 0 0 1-2.044 3.09v2.56h3.304c1.934-1.783 3.043-4.41 3.043-7.291z" fill="#4285F4"/>
    <path d="M12 22c2.7 0 4.967-.89 6.623-2.418l-3.304-2.56c-.917.617-2.086.983-3.319.983-2.553 0-4.719-1.726-5.492-4.045H3.09v2.54A9.997 9.997 0 0 0 12 22z" fill="#34A853"/>
    <path d="M6.508 13.96A5.996 5.996 0 0 1 6.13 12c0-.68.117-1.34.326-1.96V7.5H3.09A9.997 9.997 0 0 0 2 12c0 1.57.377 3.06 1.09 4.5l3.418-2.54z" fill="#FBBC05"/>
    <path d="M12 6.875c1.47 0 2.78.506 3.81 1.5l2.857-2.857C16.967 3.89 14.7 3 12 3A9.997 9.997 0 0 0 3.09 7.5l3.418 2.54C7.281 8.601 9.447 6.875 12 6.875z" fill="#EA4335"/>
  </g>
</svg>